<?xml version="1.0" encoding="utf-8"?>
<!-- Generator: Adobe Illustrator 25.2.3, SVG Export Plug-In . SVG Version: 6.00 Build 0)  -->
<svg version="1.1" id="Capa_1" xmlns="http://www.w3.org/2000/svg" xmlns:xlink="http://www.w3.org/1999/xlink" x="0px" y="0px"
	 viewBox="0 0 332.9 72.1" style="enable-background:new 0 0 332.9 72.1;" xml:space="preserve">
<style type="text/css">
	.st0{fill:#FFFFFF;}
	.st1{fill:#00EBA6;}
</style>
<g>
	<path class="st0" d="M63.9,28.9v29.6c0,1.8-1.6,2.8-5.2,2.8h-2.4c-3.7,0-5.2-1-5.2-2.8V30.8c0-3.4-1.3-5.4-5.2-5.4
		c-3.8,0-5.9,3.1-6.9,5v28.1c0,1.8-1.6,2.8-5.2,2.8h-2.4c-3.7,0-5.2-1-5.2-2.8V30.8c0-3.4-1.3-5.4-5.2-5.4c-3.6,0-5.9,3.1-6.9,5.1
		v28c0,1.8-1.6,2.8-5.2,2.8H6.3c-3.7,0-5.2-1-5.2-2.8V30.8c0-8.7-1-10.6-1-12.3c0-2.1,7.6-2.8,9.8-2.8c2.8,0,3,3.5,3.5,5.7
		c2.5-3.3,7.2-6.6,12.9-6.6c6,0,9.8,2.1,11.5,6.6c2.6-3.3,7.6-6.6,13.5-6.6C59.9,14.8,63.9,19.2,63.9,28.9"/>
</g>
<g>
	<path class="st0" d="M86.2,47.8c0,2.2,1.5,3.8,4.4,3.8c3.3,0,6.5-2.4,7.9-5.5v-4.8C90.2,41.3,86.2,43.6,86.2,47.8 M111.4,29.4v16.4
		c0,9,1,10.8,1,12.7c0,2.1-7.6,2.8-9.8,2.8c-2.8,0-3-3.7-3.5-6c-0.6,1.1-4.8,6.6-12.8,6.6c-9.4,0-12.9-5.6-12.9-12.8
		c0-7.2,2.9-16.2,25.1-16.2V30c0-3.3-2-5-6.8-5c-6.4,0-10.1,2.8-11.2,2.8c-1.8,0-4.5-5.2-4.5-7c0-3,7-6,16.7-6
		C106.4,14.8,111.4,20.9,111.4,29.4"/>
	<path class="st0" d="M160.8,28.9v29.6c0,1.8-1.6,2.8-5.2,2.8h-2.4c-3.7,0-5.2-1-5.2-2.8V30.8c0-3.4-1.4-5.4-5.2-5.4
		c-3.6,0-5.9,3.1-7,5.1v28c0,1.8-1.6,2.8-5.2,2.8H128c-3.7,0-5.2-1-5.2-2.8V30.8c0-8.7-1-10.6-1-12.3c0-2.1,7.6-2.8,9.8-2.8
		c2.8,0,3,3.5,3.5,5.7c2.5-3.3,7.3-6.6,13-6.6C156.7,14.8,160.8,19.2,160.8,28.9"/>
	<path class="st0" d="M209.2,18.1v27.7c0,9,1,10.8,1,12.7c0,2.1-7.6,2.8-9.8,2.8c-2.8,0-3-3.7-3.5-6c-2.5,3.3-7.3,6.6-13,6.6
		c-8.7,0-12.8-4.5-12.8-14.1V18.1c0-1.8,1.6-2.8,5.2-2.8h2.4c3.7,0,5.2,1,5.2,2.8v27.7c0,3.4,1.4,5.4,5.2,5.4c3.6,0,5.9-3.1,7-5.1
		v-28c0-1.8,1.6-2.8,5.2-2.8h2.4C207.6,15.3,209.2,16.2,209.2,18.1"/>
	<path class="st0" d="M234.2,11.4v38.3h9.5c9.3,0,14.1-6.7,14.1-19.1c0-12.4-4.8-19.1-14.1-19.1H234.2z M271.7,30.6
		c0,19.7-10,30.6-28,30.6h-19.6c-2.5,0-3.5-1-3.5-3.5V3.5c0-2.4,1-3.5,3.5-3.5h19.6C261.7,0,271.7,10.8,271.7,30.6"/>
	<path class="st0" d="M316.9,17.2c0,0.4-0.1,1-0.3,1.6l-13.9,40.7c-0.4,1.4-2.4,1.8-4.9,1.8h-2.8c-2.5,0-4.5-0.4-4.9-1.8l-13.9-40.7
		c-0.2-0.6-0.3-1.1-0.3-1.6c0-1.2,1.7-1.9,5.3-1.9h2.9c2.5,0,4.5,0.4,4.9,1.8l5.2,16.2c0.6,2.1,1.6,6.7,2.4,10.6h0.3
		c0.8-3.8,1.8-8.6,2.4-10.6l5.2-16.2c0.4-1.4,2.4-1.8,4.9-1.8h2.2C315.4,15.3,316.9,16,316.9,17.2"/>
	<path class="st1" d="M332.9,18.1v8c0,1.8-1.6,2.8-5.2,2.8h-2.8c-3.7,0-5.2-1-5.2-2.8v-8c0-1.8,1.6-2.8,5.2-2.8h2.8
		C331.3,15.3,332.9,16.2,332.9,18.1 M332.9,51.5c0,9.8-8.2,20.5-12.1,20.5c-1.6,0-3.9-0.5-3.9-1.9c0-0.8,0.3-1.7,0.8-2.9
		c1.1-2.8,3.1-7.2,3.1-15.7c0-2.4,1.6-3.8,5.2-3.8h1.7C331.3,47.7,332.9,49.4,332.9,51.5"/>
</g>
</svg>
