<?xml version="1.0" standalone="no"?>
<!DOCTYPE svg PUBLIC "-//W3C//DTD SVG 20010904//EN"
 "http://www.w3.org/TR/2001/REC-SVG-20010904/DTD/svg10.dtd">
<svg version="1.0" xmlns="http://www.w3.org/2000/svg"
 width="700.000000pt" height="700.000000pt" viewBox="0 0 700.000000 700.000000"
 preserveAspectRatio="xMidYMid meet">
<metadata>
Created by potrace 1.14, written by Peter Selinger 2001-2017
</metadata>
<g transform="translate(0.000000,700.000000) scale(0.100000,-0.100000)"
fill="#000000" stroke="none">
<path d="M2848 5544 c-403 -52 -759 -248 -1031 -569 l-25 -30 -12 45 c-7 25
-14 54 -16 65 -31 162 -80 290 -130 343 -54 55 -89 67 -199 67 -93 -1 -274
-13 -285 -20 -3 -2 -34 -6 -70 -10 -36 -4 -68 -9 -71 -11 -3 -2 -21 -6 -40 -9
-152 -26 -306 -83 -360 -134 -34 -33 -39 -44 -39 -82 0 -38 10 -112 24 -184 2
-11 9 -63 16 -115 6 -52 13 -106 15 -120 2 -14 7 -65 11 -115 4 -49 8 -108 11
-130 2 -22 5 -706 7 -1521 l3 -1481 23 -47 c40 -83 162 -148 309 -165 77 -8
463 -7 536 2 141 17 225 58 280 136 l30 43 1 1318 1 1318 71 99 c82 113 120
155 198 218 112 92 238 138 374 137 140 0 252 -37 322 -105 53 -52 84 -110
116 -218 3 -13 8 -631 9 -1374 4 -1488 0 -1410 66 -1472 89 -86 186 -106 507
-107 238 0 318 4 390 22 59 15 127 50 160 84 66 66 62 -28 62 1408 l0 1305 45
70 c174 269 359 388 605 387 178 0 321 -72 383 -193 17 -32 44 -114 52 -159 2
-14 6 -630 7 -1370 l2 -1346 23 -48 c29 -60 84 -100 170 -126 106 -31 115 -32
366 -35 208 -3 274 1 380 19 94 17 187 76 220 141 20 39 20 61 21 1480 1 792
-3 1483 -7 1535 -43 496 -197 779 -510 944 -213 111 -572 151 -854 95 -27 -6
-63 -13 -80 -16 -59 -10 -242 -75 -325 -115 -218 -104 -412 -252 -556 -422
-14 -16 -26 -27 -28 -25 -2 2 -16 31 -31 64 -86 186 -219 326 -389 412 -128
64 -249 98 -422 119 -98 11 -240 10 -336 -2z"/>
</g>
</svg>
