<svg xmlns="http://www.w3.org/2000/svg" height="30" viewBox="0 0 332.92 72.07">
<path d="M63.94,28.92V58.53c0,1.83-1.57,2.8-5.24,2.8H56.26c-3.67,0-5.25-1-5.25-2.8V30.84c0-3.41-1.31-5.42-5.15-5.42S40,28.57,39,30.4V58.53c0,1.83-1.57,2.8-5.24,2.8H31.27c-3.67,0-5.24-1-5.24-2.8V30.84c0-3.41-1.31-5.42-5.15-5.42-3.59,0-5.86,3.06-6.9,5.07v28c0,1.83-1.58,2.8-5.25,2.8H6.29c-3.67,0-5.24-1-5.24-2.8V30.84c0-8.74-1-10.57-1-12.32,0-2.09,7.6-2.79,9.78-2.79,2.8,0,3,3.49,3.5,5.67a16.82,16.82,0,0,1,12.93-6.64c6,0,9.78,2.1,11.53,6.64a17.78,17.78,0,0,1,13.45-6.64c8.73,0,12.75,4.46,12.75,14.16" />
<path d="M86.22,47.79c0,2.18,1.49,3.84,4.37,3.84a9,9,0,0,0,7.86-5.5V41.32c-8.3,0-12.23,2.27-12.23,6.47m25.16-18.43V45.78c0,9,1.05,10.83,1.05,12.66,0,2.1-7.6,2.8-9.79,2.8-2.79,0-3-3.67-3.49-6a15.19,15.19,0,0,1-12.84,6.64c-9.44,0-12.93-5.59-12.93-12.75s2.88-16.25,25.07-16.25V30c0-3.32-2-5-6.81-5-6.38,0-10.14,2.79-11.19,2.79-1.83,0-4.54-5.15-4.54-7,0-3,7-6,16.69-6,13.8,0,18.78,6.12,18.78,14.6" />
<path d="M160.82,28.92V58.53c0,1.83-1.57,2.8-5.24,2.8h-2.44c-3.67,0-5.24-1-5.24-2.8V30.84c0-3.41-1.4-5.42-5.24-5.42-3.59,0-5.94,3.06-7,5.07v28c0,1.83-1.58,2.8-5.25,2.8H128c-3.67,0-5.24-1-5.24-2.8V30.84c0-8.74-1-10.57-1-12.32,0-2.09,7.6-2.79,9.78-2.79,2.8,0,3,3.49,3.5,5.67a17,17,0,0,1,13-6.64c8.74,0,12.84,4.46,12.84,14.16" />
<path d="M209.22,18.09V45.78c0,9,1.05,10.83,1.05,12.66,0,2.1-7.6,2.8-9.78,2.8-2.8,0-3-3.67-3.5-6a17,17,0,0,1-13,6.64c-8.73,0-12.84-4.46-12.84-14.15V18.09c0-1.84,1.57-2.8,5.25-2.8h2.44c3.67,0,5.24,1,5.24,2.8V45.78c0,3.4,1.4,5.42,5.24,5.42,3.58,0,5.94-3.07,7-5.07v-28c0-1.84,1.58-2.8,5.24-2.8H204c3.67,0,5.24,1,5.24,2.8" />
<path d="M234.2,11.45V49.71h9.53c9.34,0,14.15-6.73,14.15-19.13s-4.81-19.13-14.15-19.13Zm37.48,19.13c0,19.74-10,30.57-28,30.57H224.16c-2.45,0-3.49-1-3.49-3.49V3.49c0-2.44,1-3.49,3.49-3.49h19.57c18,0,28,10.84,28,30.58" />
<path d="M316.93,17.21a6.21,6.21,0,0,1-.26,1.58l-13.89,40.7c-.44,1.4-2.36,1.84-4.89,1.84h-2.8c-2.53,0-4.45-.44-4.89-1.84l-13.89-40.7a6.94,6.94,0,0,1-.35-1.58c0-1.22,1.66-1.92,5.33-1.92h2.88c2.54,0,4.46.44,4.9,1.83l5.15,16.16c.62,2.1,1.58,6.73,2.45,10.57H297c.78-3.84,1.83-8.55,2.44-10.57l5.16-16.16c.43-1.39,2.35-1.83,4.89-1.83h2.18c3.67,0,5.24.7,5.24,1.92" />
<path d="M332.92,18.09v8c0,1.84-1.58,2.8-5.24,2.8h-2.8c-3.67,0-5.24-1-5.24-2.8v-8c0-1.84,1.57-2.8,5.24-2.8h2.8c3.66,0,5.24,1,5.24,2.8m0,33.45c0,9.78-8.21,20.53-12.06,20.53-1.57,0-3.93-.52-3.93-1.92a8.84,8.84,0,0,1,.79-2.88,36.71,36.71,0,0,0,3.06-15.73c0-2.36,1.57-3.84,5.24-3.84h1.66c3.66,0,5.24,1.66,5.24,3.84"/></svg>